<svg width="200" height="200" viewBox="0 0 200 200" fill="none" xmlns="http://www.w3.org/2000/svg">
<path d="M161.891 87.5062L162.451 88.0643C162.272 87.8733 162.085 87.6862 161.891 87.5062ZM164.559 91.2469C164.412 91.5319 164.284 91.7631 164.145 91.9881C163.687 92.7361 163.136 93.4422 162.489 94.0912L123.306 133.275H77.1929L38.007 94.0912C37.15 93.2322 36.461 92.2739 35.939 91.2469C36.146 90.7759 36.385 90.3211 36.653 89.8861C36.98 89.3121 37.352 88.7572 37.834 88.2782C38.218 87.8792 38.418 87.6801 38.628 87.4911L92.291 53.1322C96.687 48.7372 103.811 48.7372 108.206 53.1322L161.892 87.5072C162.086 87.6882 162.274 87.8743 162.452 88.0653C163.078 88.6893 163.441 89.2099 163.76 89.7479C164.061 90.2249 164.329 90.7249 164.559 91.2469Z" fill="#6245C9"/>
<path d="M70.455 50.7852C70.455 34.3352 83.79 21 100.241 21C116.693 21 130.026 34.3352 130.026 50.7852C130.026 58.3792 127.185 65.3093 122.505 70.5703C136.962 78.4653 146.767 93.8041 146.767 111.434V130.698C133.488 132.931 117.483 134.238 100.252 134.238C83.023 134.238 67.017 132.931 53.736 130.698V111.434C53.736 93.8061 63.53 78.4643 77.976 70.5713C73.297 65.3113 70.455 58.3812 70.455 50.7852Z" fill="#00CCCC"/>
<path d="M82.2139 85.8394L97.254 100.969L126.498 64.8354L139.079 72.749L98.423 122.299L72.1219 96.1304L82.2139 85.8394Z" fill="#BDFFFF"/>
<path d="M46.1889 179.118H154.318C158.271 179.094 161.743 177.035 163.735 173.93C163.371 173.414 162.957 172.92 162.493 172.461L123.31 133.275H77.1969L38.0109 172.461C37.5499 172.92 37.1359 173.414 36.7699 173.93C38.7619 177.035 42.2329 179.094 46.1889 179.118Z" fill="url(#paint0_linear_2864_365)"/>
<path d="M123.307 133.276L162.491 172.462C162.955 172.924 163.369 173.415 163.733 173.931C164.855 172.18 165.507 170.101 165.507 167.868V95.77C165.507 94.165 165.167 92.6344 164.562 91.2524C164.038 92.2734 163.348 93.2363 162.491 94.0933L123.307 133.276Z" fill="url(#paint1_linear_2864_365)"/>
<path d="M35 95.6533V167.966C35.021 170.159 35.668 172.203 36.772 173.926C37.136 173.411 37.55 172.916 38.013 172.456L77.197 133.27L38.013 94.0854C37.156 93.2304 36.465 92.2682 35.944 91.2432C35.35 92.5982 35.016 94.0873 35 95.6533Z" fill="url(#paint2_linear_2864_365)"/>
<path d="M46.189 179.118H154.318C158.271 179.094 161.743 177.035 163.735 173.93C163.371 173.414 162.957 172.92 162.493 172.461L137.429 147.394C125.746 146.422 113.246 145.896 100.253 145.896C87.2619 145.896 74.762 146.422 63.079 147.394L38.012 172.461C37.551 172.92 37.1369 173.414 36.7729 173.93C38.7619 177.035 42.235 179.094 46.189 179.118Z" fill="url(#paint3_linear_2864_365)"/>
<path d="M165.507 150.827V167.863C165.507 170.097 164.855 172.179 163.733 173.93C163.369 173.411 162.955 172.92 162.491 172.456L137.426 147.394C147.457 148.225 156.886 149.389 165.507 150.827Z" fill="#544EEC"/>
<path d="M35 150.827V167.967C35.021 170.165 35.668 172.207 36.772 173.931C37.136 173.412 37.55 172.921 38.013 172.457L63.078 147.395C53.047 148.225 43.621 149.389 35 150.827Z" fill="url(#paint4_linear_2864_365)"/>
<path d="M90.8049 151.168C90.8049 145.953 95.0339 141.724 100.25 141.724C105.467 141.724 109.694 145.953 109.694 151.168C109.694 154.938 107.484 158.197 104.287 159.71L105.703 171.131H94.801L96.215 159.71C93.017 158.197 90.8049 154.942 90.8049 151.168Z" fill="#00DBDB"/>
<defs>
<linearGradient id="paint0_linear_2864_365" x1="36.5548" y1="170.174" x2="164.904" y2="147.656" gradientUnits="userSpaceOnUse">
<stop stop-color="#5417FA"/>
<stop offset="0.7294" stop-color="#9873FC"/>
<stop offset="1" stop-color="#C0AAFD"/>
</linearGradient>
<linearGradient id="paint1_linear_2864_365" x1="127.431" y1="161.443" x2="176.458" y2="122.917" gradientUnits="userSpaceOnUse">
<stop stop-color="#5417FA"/>
<stop offset="1" stop-color="#C0AAFD"/>
</linearGradient>
<linearGradient id="paint2_linear_2864_365" x1="33.8586" y1="133.039" x2="77.0724" y2="125.183" gradientUnits="userSpaceOnUse">
<stop stop-color="#5417FA"/>
<stop offset="1" stop-color="#C0AAFD"/>
</linearGradient>
<linearGradient id="paint3_linear_2864_365" x1="36.7708" y1="162.506" x2="163.734" y2="162.506" gradientUnits="userSpaceOnUse">
<stop stop-color="#4605FA"/>
<stop offset="1" stop-color="#21C5BE"/>
</linearGradient>
<linearGradient id="paint4_linear_2864_365" x1="34.6739" y1="162.631" x2="63.0059" y2="156.774" gradientUnits="userSpaceOnUse">
<stop stop-color="#4D2BF3"/>
<stop offset="1" stop-color="#19C1B8"/>
</linearGradient>
</defs>
</svg>
